<svg width="640" height="480" xmlns="http://www.w3.org/2000/svg" xmlns:svg="http://www.w3.org/2000/svg">
 <!-- Created with SVG-edit - http://svg-edit.googlecode.com/ -->
 <g stroke-width="5" stroke="#000">
  <title>Layer 1</title>
  <ellipse id="tail" ry="19" rx="22" cy="180" cx="60" fill="#530"/>
  <rect id="front_left_leg" height="100" width="85" y="310" x="440" fill="#530"/>
  <rect id="left_back_leg" height="100" width="85" y="310" x="215" fill="#530"/>
  <ellipse id="body" ry="140" rx="250" cy="250" cx="300" fill="#530"/>
  <rect id="right_back_leg" height="100" width="85" y="310" x="120" fill="#530"/>
  <rect id="front_right_leg" height="100" width="85" y="310" x="345" fill="#530"/>
  <ellipse id="left_ear" ry="21" rx="21" cy="85" cx="400" fill="#530"/>
  <ellipse id="right_ear" ry="21" rx="21" cy="85" cx="525" fill="#530"/>
  <ellipse id="head" ry="95" rx="95" cy="170" cx="460" fill="#530"/>
  <ellipse id="right_eye" ry="20" rx="20" cy="135" cx="490" fill="#fff"/>
  <ellipse id="left_eye" ry="20" rx="20" cy="135" cx="460" fill="#fff"/>
  <ellipse id="right_eye_pupil" ry="3" rx="3" cy="135" cx="490" fill="#000"/>
  <ellipse id="left_eye_pupil" ry="3" rx="3" cy="135" cx="460" fill="#000"/>
  <path id="nose" d="M 460,170 h 40 l -20,25 l -20,-25 z" fill="#000"/>
 </g>
</svg>